<svg width="159" height="49" viewBox="0 0 159 49" fill="none" xmlns="http://www.w3.org/2000/svg">
<path d="M2 2C2 14.0554 3.33333 25.5906 3.33333 37.225C3.33333 44.2403 3.89448 43.999 10.5926 43.999C16.6484 43.999 24.1017 42.7877 30 41.2894" stroke="white" stroke-width="3" stroke-linecap="round"/>
<path d="M36.1638 26C36.1638 32.3919 35.7953 38.8875 36.1638 45.2635C36.3028 47.669 46.848 47.0171 48.8556 46.563C57.2765 44.6582 46.8441 30.1279 40.2191 30.1279" stroke="white" stroke-width="3" stroke-linecap="round"/>
<path d="M62.4236 27C62.4236 36.2691 59.0675 49.7645 71.2482 43.3147C78.2942 39.5838 81.7686 35.5533 71.8465 35.5533" stroke="white" stroke-width="3" stroke-linecap="round"/>
<path d="M88 36C90.9535 35.0076 95.0638 33 98 33" stroke="white" stroke-width="3" stroke-linecap="round"/>
<path d="M111 29C111.39 33.1584 114 36.8505 114 41" stroke="white" stroke-width="3" stroke-linecap="round"/>
<path d="M129 39.3541C129 36.603 129.614 34.7142 130.63 32.2948C133.338 25.8425 136.449 31.8533 139.074 35.9029C147.313 48.6144 153.525 28.3586 157 21" stroke="white" stroke-width="3" stroke-linecap="round"/>
</svg>
